<svg xmlns="http://www.w3.org/2000/svg" xmlns:xlink="http://www.w3.org/1999/xlink" xmlns:inkscape="http://www.inkscape.org/namespaces/inkscape" version="1.1" width="349.117" height="76.7665" viewBox="0 0 349.117 76.7665">
<defs>
<clipPath id="clip_0">
<path transform="matrix(1,0,0,-1,0,76.7665)" d="M0 76.766H349.117V0H0Z"/>
</clipPath>
</defs>
<g inkscape:groupmode="layer" inkscape:label="Layer 1">
<g clip-path="url(#clip_0)">
<path transform="matrix(1,0,0,-1,98.3298,26.831105)" d="M0 0C1.479 0 2.469-.934 2.849-2.375 4.157-2.495 5.449-2.623 6.723-2.759 6.187 .523 4.032 3.208 0 3.208-3.218 3.208-5.669 1.164-6.579-1.659-5.286-1.737-4.006-1.822-2.737-1.915-2.238-.728-1.297 0 0 0" fill="#96a5d4"/>
<path transform="matrix(1,0,0,-1,23.0648,19.574303)" d="M0 0H-4.049V-12.442C-2.734-12.192-1.382-11.953 0-11.724Z" fill="#96a5d4"/>
<path transform="matrix(1,0,0,-1,47.8165,27.304203)" d="M0 0H3.313V3.418H0V7.02H-3.997V3.418H-5.679V0H-3.997V-1.548C-2.678-1.446-1.346-1.351 0-1.263Z" fill="#96a5d4"/>
<path transform="matrix(1,0,0,-1,60.359,26.831105)" d="M0 0C.981 0 1.746-.413 2.262-1.111 3.591-1.082 4.928-1.061 6.271-1.047 5.344 1.407 3.303 3.208 0 3.208-3.121 3.208-5.523 1.287-6.494-1.403-5.131-1.34-3.757-1.286-2.373-1.239-1.835-.457-1.029 0 0 0" fill="#96a5d4"/>
<path transform="matrix(1,0,0,-1,77.3223,27.924702)" d="M0 0C.36 .078 .743 .121 1.154 .121H1.365V4.302C-1.001 4.407-2.317 3.145-3.132 1.199V4.039H-7.128V.065C-7.055 .065-6.982 .066-6.909 .066-4.589 .066-2.284 .043 0 0" fill="#96a5d4"/>
<path transform="matrix(1,0,0,-1,89.4682,27.803902)" d="M0 0H.21V4.18C-2.156 4.285-3.471 3.024-4.286 1.078V3.917H-8.282V-.214C-6.205-.274-4.145-.353-2.112-.448-1.513-.15-.805 0 0 0" fill="#96a5d4"/>
<path transform="matrix(1,0,0,-1,111.0046,30.249402)" d="M0 0V.053C0 1.972 1.472 3.313 3.418 3.313 5.364 3.313 6.862 1.972 6.862 .053V0C6.862-.37 6.806-.717 6.701-1.039 8.103-1.271 9.473-1.513 10.806-1.767V6.363H6.81V4.522C5.732 5.706 4.444 6.626 2.261 6.626-.871 6.626-3.797 4.401-3.979 .441-2.63 .286-1.303 .123 .002-.049 .002-.032 0-.017 0 0" fill="#96a5d4"/>
<path transform="matrix(1,0,0,-1,32.2898,27.332303)" d="M0 0C.264 .125 .849 .249 1.137 .249 1.425 .249 2.011 .125 2.275 0 3.293-.484 3.752-1.207 3.884-2.215 5.151-2.082 6.435-1.957 7.734-1.839 7.286 .211 6.058 1.94 4.162 2.905 3.29 3.347 2.28 3.71 1.137 3.71-.005 3.71-1.015 3.347-1.886 2.905-4.25 1.703-5.579-.688-5.645-3.407-4.34-3.216-3.008-3.033-1.654-2.86-1.647-1.496-1.223-.582 0 0" fill="#96a5d4"/>
<path transform="matrix(1,0,0,-1,91.3624,31.011704)" d="M0 0C0-4.312 3.129-7.283 7.362-7.283 9.913-7.283 11.805-6.284 13.12-4.653L10.832-2.629C9.728-3.655 8.755-4.076 7.415-4.076 5.626-4.076 4.365-3.129 3.97-1.314H13.777C13.803-.946 13.83-.578 13.83-.263 13.83 .31 13.781 .873 13.691 1.421 12.416 1.558 11.124 1.686 9.816 1.806 9.869 1.607 9.91 1.399 9.938 1.183H3.917C3.986 1.576 4.092 1.938 4.23 2.266 2.962 2.359 1.682 2.444 .389 2.522 .14 1.748 0 .918 0 .053Z" fill="#074ea2"/>
<path transform="matrix(1,0,0,-1,23.0648,37.979505)" d="M0 0V6.681C-1.382 6.452-2.734 6.214-4.049 5.963V0Z" fill="#074ea2"/>
<path transform="matrix(1,0,0,-1,47.922,38.216005)" d="M0 0C1.341 0 2.313 .315 3.155 .815V4.022C2.576 3.707 1.919 3.523 1.183 3.523 .289 3.523-.105 3.971-.105 4.89V9.648C-1.451 9.561-2.783 9.466-4.102 9.363V4.233C-4.102 .973-2.445 0 0 0" fill="#074ea2"/>
<path transform="matrix(1,0,0,-1,53.3917,31.011704)" d="M0 0C0-4.312 3.129-7.283 7.362-7.283 9.913-7.283 11.805-6.284 13.12-4.653L10.832-2.629C9.728-3.655 8.756-4.076 7.415-4.076 5.626-4.076 4.365-3.129 3.97-1.314H13.777C13.803-.946 13.83-.578 13.83-.263 13.83 .929 13.633 2.089 13.239 3.134 11.896 3.119 10.559 3.099 9.229 3.07 9.598 2.571 9.84 1.929 9.938 1.183H3.917C4.037 1.87 4.266 2.465 4.594 2.942 3.21 2.895 1.836 2.84 .472 2.778 .168 1.932 0 1.014 0 .053Z" fill="#074ea2"/>
<path transform="matrix(1,0,0,-1,74.1907,37.979505)" d="M0 0V5.206C0 8.051 1.168 9.632 3.132 10.055 .847 10.097-1.457 10.12-3.777 10.12-3.851 10.12-3.923 10.12-3.996 10.12V0Z" fill="#074ea2"/>
<path transform="matrix(1,0,0,-1,85.1822,37.979505)" d="M0 0V5.206C0 7.552 .794 9.04 2.174 9.727 .14 9.824-1.919 9.901-3.996 9.962V0Z" fill="#074ea2"/>
<path transform="matrix(1,0,0,-1,107.0081,30.249402)" d="M0 0C0-4.18 2.971-6.573 6.257-6.573 8.387-6.573 9.676-5.705 10.859-4.285V-4.97C10.859-7.493 9.57-8.808 6.836-8.808 4.97-8.808 3.523-8.335 2.077-7.519L.709-10.517C2.498-11.463 4.653-11.99 6.942-11.99 9.676-11.99 11.7-11.411 13.015-10.096 14.198-8.914 14.803-7.073 14.803-4.548V-1.767C13.47-1.513 12.1-1.271 10.698-1.039 10.263-2.385 8.985-3.26 7.415-3.26 5.486-3.26 4.023-1.967 3.999-.049 2.694 .123 1.365 .286 .017 .441 .011 .311 0 .185 0 .053Z" fill="#074ea2"/>
<path transform="matrix(1,0,0,-1,36.2204,30.226502)" d="M0 0V-1.372-7.233-7.748H3.997V-.781-.728C3.997-.115 3.929 .482 3.803 1.055 2.505 .937 1.22 .812-.047 .679-.019 .464 0 .241 0 0" fill="#074ea2"/>
<path transform="matrix(1,0,0,-1,26.638,31.0069)" d="M0 0V-6.968H3.996V-6.453-.591 .781C3.996 .792 3.997 .803 3.997 .815 2.643 .641 1.312 .459 .006 .268 .005 .196 0 .125 0 .053Z" fill="#074ea2"/>
<path transform="matrix(1,0,0,-1,213.7289,32.0792)" d="M0 0 1.821-.578C1.542-1.594 1.077-2.348 .428-2.841-.222-3.334-1.046-3.58-2.045-3.58-3.28-3.58-4.296-3.158-5.091-2.314-5.887-1.47-6.285-.315-6.285 1.148-6.285 2.697-5.885 3.9-5.085 4.757-4.285 5.614-3.233 6.043-1.93 6.043-.792 6.043 .133 5.706 .844 5.033 1.267 4.636 1.584 4.064 1.796 3.319L-.064 2.875C-.174 3.357-.403 3.738-.753 4.018-1.102 4.297-1.526 4.437-2.025 4.437-2.715 4.437-3.274 4.189-3.704 3.693-4.134 3.199-4.349 2.396-4.349 1.288-4.349 .111-4.138-.727-3.714-1.226-3.291-1.725-2.74-1.975-2.063-1.975-1.564-1.975-1.135-1.816-.775-1.498-.415-1.182-.157-.682 0 0" fill="#074ea2"/>
<path transform="matrix(1,0,0,-1,218.5648,32.1299)" d="M0 0C0-.669 .159-1.182 .476-1.537 .794-1.893 1.185-2.07 1.65-2.07 2.116-2.07 2.506-1.893 2.821-1.537 3.137-1.182 3.294-.665 3.294 .012 3.294 .672 3.137 1.18 2.821 1.535 2.506 1.891 2.116 2.068 1.65 2.068 1.185 2.068 .794 1.891 .476 1.535 .159 1.18 0 .668 0 0M-1.828 .095C-1.828 .687-1.683 1.261-1.39 1.814-1.099 2.369-.685 2.793-.149 3.084 .386 3.377 .983 3.522 1.644 3.522 2.664 3.522 3.5 3.191 4.151 2.529 4.803 1.867 5.129 1.03 5.129 .019 5.129-1.001 4.8-1.847 4.142-2.518 3.483-3.188 2.655-3.523 1.657-3.523 1.039-3.523 .449-3.384-.111-3.104-.672-2.825-1.099-2.416-1.39-1.876-1.683-1.337-1.828-.68-1.828 .095" fill="#074ea2"/>
<path transform="matrix(1,0,0,-1,0,76.7665)" d="M224.888 45.531H228.392V43.747999H224.888Z" fill="#074ea2"/>
<path transform="matrix(1,0,0,-1,228.639,28.759804)" d="M0 0H.99V.508C.99 1.075 1.051 1.498 1.171 1.777 1.292 2.057 1.514 2.284 1.838 2.46 2.161 2.636 2.57 2.724 3.066 2.724 3.574 2.724 4.071 2.647 4.558 2.495L4.316 1.251C4.033 1.318 3.76 1.353 3.498 1.353 3.239 1.353 3.055 1.292 2.942 1.171 2.83 1.051 2.773 .819 2.773 .476V0H4.107V-1.403H2.773V-6.741H.99V-1.403H0Z" fill="#074ea2"/>
<path transform="matrix(1,0,0,-1,238.1859,35.501005)" d="M0 0V1.01C-.245 .649-.568 .366-.968 .158-1.368-.049-1.79-.152-2.234-.152-2.688-.152-3.094-.053-3.453 .146-3.813 .345-4.073 .624-4.233 .984-4.395 1.344-4.476 1.841-4.476 2.476V6.741H-2.691V3.644C-2.691 2.695-2.658 2.115-2.593 1.901-2.527 1.687-2.408 1.519-2.234 1.394-2.061 1.269-1.841 1.206-1.574 1.206-1.27 1.206-.997 1.29-.755 1.457-.515 1.624-.349 1.831-.261 2.079-.171 2.326-.127 2.933-.127 3.897V6.741H1.657V0Z" fill="#074ea2"/>
<path transform="matrix(1,0,0,-1,247.8216,35.501005)" d="M0 0H-1.783V3.44C-1.783 4.168-1.821 4.639-1.897 4.853-1.974 5.066-2.098 5.232-2.269 5.352-2.44 5.47-2.646 5.529-2.888 5.529-3.196 5.529-3.474 5.444-3.719 5.275-3.965 5.105-4.133 4.881-4.224 4.602-4.314 4.322-4.36 3.807-4.36 3.053V0H-6.145V6.741H-4.487V5.751C-3.899 6.513-3.158 6.894-2.266 6.894-1.872 6.894-1.513 6.822-1.187 6.681-.86 6.539-.614 6.358-.447 6.139-.28 5.918-.163 5.668-.098 5.389-.032 5.109 0 4.71 0 4.189Z" fill="#074ea2"/>
<path transform="matrix(1,0,0,-1,251.0531,31.984402)" d="M0 0C0-.72 .099-1.24 .298-1.562 .586-2.027 .987-2.26 1.504-2.26 1.914-2.26 2.264-2.085 2.551-1.736 2.839-1.387 2.982-.865 2.982-.171 2.982 .603 2.844 1.16 2.564 1.501 2.285 1.842 1.927 2.013 1.491 2.013 1.068 2.013 .714 1.844 .428 1.508 .143 1.171 0 .669 0 0M4.76-3.517H3.104V-2.526C2.828-2.911 2.504-3.198 2.129-3.387 1.755-3.575 1.377-3.669 .996-3.669 .222-3.669-.441-3.356-.994-2.732-1.546-2.108-1.822-1.237-1.822-.12-1.822 1.022-1.554 1.891-1.016 2.485-.479 3.08 .2 3.377 1.021 3.377 1.774 3.377 2.427 3.063 2.977 2.438V5.789H4.76Z" fill="#074ea2"/>
<path transform="matrix(1,0,0,-1,261.5765,31.552803)" d="M0 0C-.013 .517-.146 .909-.399 1.178-.653 1.446-.963 1.581-1.327 1.581-1.716 1.581-2.038 1.438-2.292 1.155-2.546 .872-2.67 .486-2.666 0ZM-.102-1.803 1.676-2.101C1.447-2.753 1.087-3.249 .594-3.59 .101-3.931-.517-4.101-1.257-4.101-2.429-4.101-3.297-3.718-3.859-2.952-4.304-2.338-4.526-1.563-4.526-.628-4.526 .489-4.233 1.363-3.649 1.996-3.065 2.629-2.327 2.945-1.435 2.945-.432 2.945 .359 2.614 .939 1.952 1.52 1.29 1.796 .275 1.771-1.092H-2.698C-2.685-1.621-2.541-2.032-2.267-2.326-1.991-2.62-1.648-2.768-1.237-2.768-.958-2.768-.724-2.691-.533-2.539-.343-2.387-.199-2.142-.102-1.803" fill="#074ea2"/>
<path transform="matrix(1,0,0,-1,266.224,31.984402)" d="M0 0C0-.72 .099-1.24 .298-1.562 .586-2.027 .987-2.26 1.504-2.26 1.914-2.26 2.264-2.085 2.551-1.736 2.839-1.387 2.982-.865 2.982-.171 2.982 .603 2.844 1.16 2.564 1.501 2.285 1.842 1.927 2.013 1.491 2.013 1.068 2.013 .714 1.844 .428 1.508 .143 1.171 0 .669 0 0M4.76-3.517H3.104V-2.526C2.828-2.911 2.504-3.198 2.129-3.387 1.755-3.575 1.377-3.669 .996-3.669 .222-3.669-.441-3.356-.994-2.732-1.546-2.108-1.822-1.237-1.822-.12-1.822 1.022-1.554 1.891-1.016 2.485-.479 3.08 .2 3.377 1.021 3.377 1.774 3.377 2.427 3.063 2.977 2.438V5.789H4.76Z" fill="#074ea2"/>
<path transform="matrix(1,0,0,-1,278.0492,31.984402)" d="M0 0C0-.698 .11-1.215 .33-1.549 .639-2.022 1.05-2.26 1.562-2.26 1.955-2.26 2.29-2.092 2.567-1.755 2.845-1.419 2.983-.889 2.983-.165 2.983 .605 2.844 1.16 2.564 1.501 2.285 1.842 1.928 2.013 1.491 2.013 1.064 2.013 .709 1.846 .425 1.514 .142 1.182 0 .677 0 0M-1.771-3.517V5.789H.013V2.438C.562 3.063 1.215 3.377 1.968 3.377 2.789 3.377 3.468 3.08 4.005 2.485 4.543 1.891 4.812 1.037 4.812-.076 4.812-1.228 4.537-2.114 3.989-2.735 3.441-3.358 2.776-3.669 1.993-3.669 1.608-3.669 1.229-3.572 .854-3.38 .479-3.188 .156-2.903-.114-2.526V-3.517Z" fill="#074ea2"/>
<path transform="matrix(1,0,0,-1,283.4515,28.759804)" d="M0 0H1.897L3.511-4.786 5.085 0H6.932L4.552-6.487 4.126-7.661C3.97-8.056 3.82-8.355 3.679-8.563 3.537-8.771 3.374-8.938 3.189-9.067 3.006-9.196 2.779-9.297 2.511-9.369 2.242-9.441 1.938-9.478 1.6-9.478 1.257-9.478 .921-9.441 .591-9.369L.432-7.973C.711-8.027 .963-8.056 1.187-8.056 1.602-8.056 1.908-7.934 2.107-7.69 2.307-7.447 2.459-7.137 2.564-6.761Z" fill="#074ea2"/>
<path transform="matrix(1,0,0,-1,210.8529,44.3604)" d="M0 0V-1.422H-1.219V-4.139C-1.219-4.688-1.207-5.01-1.184-5.101-1.16-5.191-1.107-5.267-1.025-5.325-.942-5.385-.842-5.415-.724-5.415-.559-5.415-.319-5.357-.007-5.243L.146-6.627C-.269-6.805-.738-6.894-1.264-6.894-1.585-6.894-1.875-6.84-2.133-6.731-2.391-6.624-2.58-6.484-2.701-6.312-2.821-6.142-2.905-5.909-2.952-5.618-2.99-5.41-3.009-4.991-3.009-4.36V-1.422H-3.828V0H-3.009V1.339L-1.219 2.38V0Z" fill="#074ea2"/>
<path transform="matrix(1,0,0,-1,213.8685,41.795904)" d="M0 0V-3.421C.575-2.749 1.263-2.412 2.063-2.412 2.473-2.412 2.844-2.488 3.174-2.641 3.504-2.793 3.752-2.987 3.919-3.225 4.086-3.462 4.2-3.724 4.262-4.012 4.323-4.3 4.354-4.746 4.354-5.351V-9.306H2.57V-5.745C2.57-5.038 2.536-4.589 2.469-4.399 2.401-4.208 2.281-4.058 2.11-3.945 1.938-3.833 1.724-3.776 1.466-3.776 1.17-3.776 .905-3.849 .672-3.993 .439-4.137 .27-4.354 .161-4.644 .054-4.934 0-5.361 0-5.929V-9.306H-1.784V0Z" fill="#074ea2"/>
<path transform="matrix(1,0,0,-1,224.0374,47.153406)" d="M0 0C-.013 .517-.146 .909-.399 1.178-.653 1.446-.963 1.581-1.327 1.581-1.716 1.581-2.038 1.438-2.292 1.155-2.546 .872-2.67 .486-2.666 0ZM-.102-1.803 1.676-2.101C1.447-2.753 1.087-3.249 .594-3.59 .101-3.931-.517-4.101-1.257-4.101-2.429-4.101-3.297-3.718-3.859-2.952-4.304-2.338-4.526-1.563-4.526-.628-4.526 .489-4.233 1.363-3.649 1.996-3.065 2.629-2.327 2.945-1.435 2.945-.432 2.945 .359 2.614 .939 1.952 1.52 1.29 1.796 .275 1.771-1.092H-2.698C-2.685-1.621-2.541-2.032-2.267-2.326-1.991-2.62-1.648-2.768-1.237-2.768-.958-2.768-.724-2.691-.533-2.539-.343-2.387-.199-2.142-.102-1.803" fill="#074ea2"/>
<path transform="matrix(1,0,0,-1,230.8861,51.1016)" d="M0 0V9.306H6.9V7.731H1.879V5.668H6.551V4.101H1.879V1.568H7.078V0Z" fill="#074ea2"/>
<path transform="matrix(1,0,0,-1,243.9808,51.1016)" d="M0 0V1.01C-.245 .649-.568 .366-.968 .158-1.368-.049-1.79-.152-2.234-.152-2.688-.152-3.094-.053-3.453 .146-3.813 .345-4.073 .624-4.233 .984-4.395 1.344-4.476 1.841-4.476 2.476V6.741H-2.691V3.644C-2.691 2.695-2.658 2.115-2.593 1.901-2.527 1.687-2.408 1.519-2.234 1.394-2.061 1.269-1.841 1.206-1.574 1.206-1.27 1.206-.997 1.29-.755 1.457-.515 1.624-.349 1.831-.261 2.079-.171 2.326-.127 2.933-.127 3.897V6.741H1.657V0Z" fill="#074ea2"/>
<path transform="matrix(1,0,0,-1,249.1927,51.1016)" d="M0 0H-1.783V6.741H-.127V5.783C.156 6.235 .411 6.534 .638 6.678 .864 6.821 1.121 6.894 1.409 6.894 1.815 6.894 2.207 6.781 2.584 6.557L2.031 5.002C1.73 5.196 1.451 5.294 1.193 5.294 .943 5.294 .732 5.226 .559 5.088 .385 4.95 .249 4.701 .149 4.342 .05 3.982 0 3.229 0 2.082Z" fill="#074ea2"/>
<path transform="matrix(1,0,0,-1,253.9593,47.730504)" d="M0 0C0-.669 .159-1.182 .476-1.537 .794-1.893 1.185-2.07 1.65-2.07 2.116-2.07 2.506-1.893 2.821-1.537 3.137-1.182 3.294-.665 3.294 .012 3.294 .672 3.137 1.18 2.821 1.535 2.506 1.891 2.116 2.068 1.65 2.068 1.185 2.068 .794 1.891 .476 1.535 .159 1.18 0 .668 0 0M-1.828 .095C-1.828 .687-1.683 1.261-1.39 1.814-1.099 2.369-.685 2.793-.149 3.084 .386 3.377 .983 3.522 1.644 3.522 2.664 3.522 3.5 3.191 4.151 2.529 4.803 1.867 5.129 1.03 5.129 .019 5.129-1.001 4.8-1.847 4.142-2.518 3.483-3.188 2.655-3.523 1.657-3.523 1.039-3.523 .449-3.384-.111-3.104-.672-2.825-1.099-2.416-1.39-1.876-1.683-1.337-1.828-.68-1.828 .095" fill="#074ea2"/>
<path transform="matrix(1,0,0,-1,262.1986,47.617204)" d="M0 0C0-.757 .15-1.316 .451-1.679 .752-2.04 1.117-2.221 1.549-2.221 1.964-2.221 2.309-2.055 2.584-1.723 2.859-1.391 2.996-.846 2.996-.088 2.996 .618 2.854 1.143 2.571 1.486 2.288 1.828 1.937 2 1.518 2 1.082 2 .72 1.832 .432 1.495 .145 1.159 0 .66 0 0M-1.764 3.257H-.102V2.267C.115 2.605 .406 2.88 .775 3.092 1.143 3.304 1.552 3.409 2 3.409 2.783 3.409 3.447 3.103 3.993 2.488 4.539 1.875 4.812 1.021 4.812-.076 4.812-1.201 4.537-2.076 3.986-2.7 3.437-3.324 2.771-3.637 1.987-3.637 1.615-3.637 1.277-3.563 .975-3.414 .672-3.267 .354-3.013 .02-2.652V-6.049H-1.764Z" fill="#074ea2"/>
<path transform="matrix(1,0,0,-1,272.432,47.153406)" d="M0 0C-.013 .517-.146 .909-.399 1.178-.653 1.446-.963 1.581-1.327 1.581-1.716 1.581-2.038 1.438-2.292 1.155-2.546 .872-2.67 .486-2.666 0ZM-.102-1.803 1.676-2.101C1.447-2.753 1.087-3.249 .594-3.59 .101-3.931-.517-4.101-1.257-4.101-2.429-4.101-3.297-3.718-3.859-2.952-4.304-2.338-4.526-1.563-4.526-.628-4.526 .489-4.233 1.363-3.649 1.996-3.065 2.629-2.327 2.945-1.435 2.945-.432 2.945 .359 2.614 .939 1.952 1.52 1.29 1.796 .275 1.771-1.092H-2.698C-2.685-1.621-2.541-2.032-2.267-2.326-1.991-2.62-1.648-2.768-1.237-2.768-.958-2.768-.724-2.691-.533-2.539-.343-2.387-.199-2.142-.102-1.803" fill="#074ea2"/>
<path transform="matrix(1,0,0,-1,279.3753,47.864305)" d="M0 0C-.229-.076-.59-.167-1.085-.272-1.58-.379-1.904-.482-2.057-.584-2.289-.749-2.405-.958-2.405-1.212-2.405-1.462-2.313-1.678-2.126-1.86-1.939-2.042-1.703-2.133-1.415-2.133-1.094-2.133-.787-2.027-.494-1.815-.279-1.654-.137-1.458-.069-1.226-.022-1.073 0-.783 0-.355ZM-2.387 1.447-4.005 1.739C-3.823 2.391-3.51 2.873-3.065 3.187-2.621 3.5-1.961 3.656-1.085 3.656-.289 3.656 .303 3.563 .692 3.374 1.082 3.186 1.355 2.946 1.515 2.656 1.673 2.366 1.752 1.835 1.752 1.06L1.733-1.022C1.733-1.614 1.762-2.052 1.819-2.333 1.876-2.614 1.983-2.916 2.14-3.237H.375C.328-3.119 .271-2.943 .203-2.71 .174-2.604 .152-2.535 .141-2.501-.164-2.797-.49-3.02-.838-3.167-1.185-3.315-1.555-3.39-1.948-3.39-2.643-3.39-3.189-3.201-3.589-2.825-3.989-2.448-4.189-1.972-4.189-1.396-4.189-1.016-4.098-.676-3.916-.378-3.734-.079-3.479 .149-3.151 .308-2.823 .467-2.351 .605-1.732 .724-.898 .88-.321 1.026 0 1.161V1.339C0 1.683-.084 1.927-.254 2.072-.423 2.219-.742 2.292-1.212 2.292-1.529 2.292-1.777 2.229-1.955 2.104-2.133 1.979-2.276 1.761-2.387 1.447" fill="#074ea2"/>
<path transform="matrix(1,0,0,-1,289.0169,51.1016)" d="M0 0H-1.783V3.44C-1.783 4.168-1.821 4.639-1.897 4.853-1.974 5.066-2.098 5.232-2.269 5.352-2.44 5.47-2.646 5.529-2.888 5.529-3.196 5.529-3.474 5.444-3.719 5.275-3.965 5.105-4.133 4.881-4.224 4.602-4.314 4.322-4.36 3.807-4.36 3.053V0H-6.145V6.741H-4.487V5.751C-3.899 6.513-3.158 6.894-2.266 6.894-1.872 6.894-1.513 6.822-1.187 6.681-.86 6.539-.614 6.358-.447 6.139-.28 5.918-.163 5.668-.098 5.389-.032 5.109 0 4.71 0 4.189Z" fill="#074ea2"/>
<path transform="matrix(1,0,0,-1,294.4388,41.795904)" d="M0 0H1.879V-5.04C1.879-5.84 1.901-6.358 1.948-6.595 2.028-6.976 2.22-7.282 2.522-7.513 2.825-7.743 3.239-7.858 3.764-7.858 4.297-7.858 4.699-7.749 4.97-7.531 5.24-7.313 5.403-7.046 5.459-6.729 5.514-6.411 5.541-5.884 5.541-5.147V0H7.42V-4.888C7.42-6.005 7.369-6.794 7.268-7.255 7.166-7.717 6.979-8.106 6.706-8.423 6.433-8.741 6.068-8.993 5.611-9.182 5.154-9.37 4.557-9.464 3.82-9.464 2.932-9.464 2.258-9.361 1.799-9.156 1.34-8.951 .977-8.685 .711-8.356 .443-8.028 .269-7.685 .184-7.325 .061-6.792 0-6.005 0-4.964Z" fill="#074ea2"/>
<path transform="matrix(1,0,0,-1,309.9583,51.1016)" d="M0 0H-1.783V3.44C-1.783 4.168-1.821 4.639-1.897 4.853-1.974 5.066-2.098 5.232-2.269 5.352-2.44 5.47-2.646 5.529-2.888 5.529-3.196 5.529-3.474 5.444-3.719 5.275-3.965 5.105-4.133 4.881-4.224 4.602-4.314 4.322-4.36 3.807-4.36 3.053V0H-6.145V6.741H-4.487V5.751C-3.899 6.513-3.158 6.894-2.266 6.894-1.872 6.894-1.513 6.822-1.187 6.681-.86 6.539-.614 6.358-.447 6.139-.28 5.918-.163 5.668-.098 5.389-.032 5.109 0 4.71 0 4.189Z" fill="#074ea2"/>
<path transform="matrix(1,0,0,-1,0,76.7665)" d="M311.769 32.406H313.552V25.664998H311.769ZM311.769 34.971H313.552V33.321H311.769Z" fill="#074ea2"/>
<path transform="matrix(1,0,0,-1,316.7953,47.730504)" d="M0 0C0-.669 .159-1.182 .476-1.537 .794-1.893 1.185-2.07 1.65-2.07 2.116-2.07 2.506-1.893 2.821-1.537 3.137-1.182 3.294-.665 3.294 .012 3.294 .672 3.137 1.18 2.821 1.535 2.506 1.891 2.116 2.068 1.65 2.068 1.185 2.068 .794 1.891 .476 1.535 .159 1.18 0 .668 0 0M-1.828 .095C-1.828 .687-1.683 1.261-1.39 1.814-1.099 2.369-.685 2.793-.149 3.084 .386 3.377 .983 3.522 1.644 3.522 2.664 3.522 3.5 3.191 4.151 2.529 4.803 1.867 5.129 1.03 5.129 .019 5.129-1.001 4.8-1.847 4.142-2.518 3.483-3.188 2.655-3.523 1.657-3.523 1.039-3.523 .449-3.384-.111-3.104-.672-2.825-1.099-2.416-1.39-1.876-1.683-1.337-1.828-.68-1.828 .095" fill="#074ea2"/>
<path transform="matrix(1,0,0,-1,329.4525,51.1016)" d="M0 0H-1.783V3.44C-1.783 4.168-1.821 4.639-1.897 4.853-1.974 5.066-2.098 5.232-2.269 5.352-2.44 5.47-2.646 5.529-2.888 5.529-3.196 5.529-3.474 5.444-3.719 5.275-3.965 5.105-4.133 4.881-4.224 4.602-4.314 4.322-4.36 3.807-4.36 3.053V0H-6.145V6.741H-4.487V5.751C-3.899 6.513-3.158 6.894-2.266 6.894-1.872 6.894-1.513 6.822-1.187 6.681-.86 6.539-.614 6.358-.447 6.139-.28 5.918-.163 5.668-.098 5.389-.032 5.109 0 4.71 0 4.189Z" fill="#074ea2"/>
<path transform="matrix(1,0,0,-1,0,76.7665)" d="M139.4 17.7H199.67299V58.628004H139.4Z" fill="#ffffff"/>
<path transform="matrix(1,0,0,-1,0,76.7665)" d="M141.079 19.216H197.993V57.159H141.079Z" fill="#074ea2"/>
<path transform="matrix(1,0,0,-1,168.3234,27.874802)" d="M0 0 1.201 .876 2.402 0 1.945 1.417 3.165 2.294H1.661L1.201 3.728 .741 2.292-.762 2.294 .457 1.417Z" fill="#fff200"/>
<path transform="matrix(1,0,0,-1,162.1085,29.544503)" d="M0 0 1.201 .876 2.401 0 1.945 1.417 3.164 2.294H1.66L1.2 3.73 .74 2.292-.763 2.294 .456 1.417Z" fill="#fff200"/>
<path transform="matrix(1,0,0,-1,158.762,30.372303)" d="M0 0-.46-1.438-1.963-1.436-.744-2.312-1.201-3.73 0-2.853 1.201-3.73 .744-2.312 1.963-1.436H.46Z" fill="#fff200"/>
<path transform="matrix(1,0,0,-1,157.0939,39.432806)" d="M0 0 1.2-.876 .744 .541 1.963 1.417H.46L0 2.853-.46 1.414-1.964 1.417-.744 .541-1.201-.876Z" fill="#fff200"/>
<path transform="matrix(1,0,0,-1,159.2221,44.241205)" d="M0 0-.46 1.436-.92-.002-2.423 0-1.204-.876-1.661-2.294-.46-1.416 .741-2.294 .284-.876 1.503 0Z" fill="#fff200"/>
<path transform="matrix(1,0,0,-1,163.7782,48.797204)" d="M0 0-.46 1.434-.92-.002-2.423 0-1.204-.876-1.66-2.294-.459-1.417 .741-2.294 .285-.876 1.503 0Z" fill="#fff200"/>
<path transform="matrix(1,0,0,-1,169.9853,50.448205)" d="M0 0-.46 1.436-.92-.002-2.423 0-1.204-.876-1.66-2.294-.459-1.417 .741-2.294 .284-.876 1.503 0Z" fill="#fff200"/>
<path transform="matrix(1,0,0,-1,176.1924,48.797204)" d="M0 0-.459 1.434-.92-.002-2.422 0-1.204-.876-1.66-2.294-.459-1.417 .742-2.294 .284-.876 1.504 0Z" fill="#fff200"/>
<path transform="matrix(1,0,0,-1,180.75,44.241205)" d="M0 0-.461 1.436-.922-.002-2.424 0-1.204-.876-1.662-2.294-.461-1.416 .74-2.294 .282-.876 1.502 0Z" fill="#fff200"/>
<path transform="matrix(1,0,0,-1,183.903,37.998205)" d="M0 0H-1.504L-1.964 1.436-2.424-.002-3.927 0-2.708-.876-3.164-2.294-1.964-1.416-.764-2.294-1.22-.876Z" fill="#fff200"/>
<path transform="matrix(1,0,0,-1,179.088,34.0833)" d="M0 0 1.201 .876 2.402 0 1.944 1.417 3.164 2.292H1.662L1.201 3.728 .74 2.291-.762 2.292 .458 1.417Z" fill="#fff200"/>
<path transform="matrix(1,0,0,-1,175.7503,25.816205)" d="M0 0-.459-1.438-1.963-1.434-.745-2.312-1.201-3.73 .002-2.852 1.201-3.73 .745-2.312 1.964-1.434H.459Z" fill="#fff200"/>
<path transform="matrix(1,0,0,-1,53.815,48.716604)" d="M0 0C.264 0 .484-.022 .769-.044V3.121C-1.055 3.121-2.461 2.527-3.296 1.384V2.945H-6.571V-1.914C-5.325-1.781-4.061-1.656-2.78-1.539-2.283-.501-1.298 0 0 0" fill="#96a5d4"/>
<path transform="matrix(1,0,0,-1,61.9001,48.4085)" d="M0 0C.923 0 1.716-.367 2.259-1.015 3.504-.971 4.758-.933 6.03-.907 5.108 1.353 2.854 2.813 0 2.813-3.085 2.813-5.485 1.108-6.247-1.472-4.993-1.382-3.724-1.301-2.439-1.23-1.894-.445-1.021 0 0 0" fill="#96a5d4"/>
<path transform="matrix(1,0,0,-1,22.554,51.178)" d="M0 0H7.143V2.769H0V6.11H8.087V8.966H-3.538V-4.167C-2.388-3.907-1.209-3.648 0-3.392Z" fill="#96a5d4"/>
<path transform="matrix(1,0,0,-1,36.3252,51.947004)" d="M0 0V6.176H-3.428V-.505C-3.428-.558-3.418-.6-3.417-.652-2.297-.464-1.152-.281 .006-.103 .005-.067 0-.037 0 0" fill="#96a5d4"/>
<path transform="matrix(1,0,0,-1,44.8742,45.7714)" d="M0 0H-3.428V-5.551C-2.299-5.402-1.161-5.256 0-5.119Z" fill="#96a5d4"/>
<path transform="matrix(1,0,0,-1,74.3289,49.275506)" d="M0 0C.538 .56 1.289 .867 2.144 .867 3.029 .867 3.799 .533 4.34-.067 5.641-.098 6.949-.136 8.274-.19 7.466 2.222 5.333 3.68 2.737 3.68 1.155 3.68-.12 3.174-.977 2.141V3.504H-4.252V-.008C-2.851 .008-1.432 .009 0 0" fill="#96a5d4"/>
<path transform="matrix(1,0,0,-1,90.8189,48.1892)" d="M0 0C1.362 0 2.393-.76 2.781-1.971 3.855-2.063 4.932-2.157 6.021-2.264 5.488 .776 3.043 2.594-.022 2.594-2.856 2.594-5.127 1.013-5.97-1.382-4.867-1.437-3.759-1.497-2.64-1.568-2.169-.586-1.223 0 0 0" fill="#96a5d4"/>
<path transform="matrix(1,0,0,-1,30.9273,57.5951)" d="M0 0V2.857H-8.373V3.025C-9.582 2.769-10.761 2.51-11.912 2.25V0Z" fill="#074ea2"/>
<path transform="matrix(1,0,0,-1,50.6725,57.5951)" d="M0 0V5.582C0 6.291 .135 6.866 .362 7.339-.918 7.222-2.183 7.098-3.428 6.964V0Z" fill="#074ea2"/>
<path transform="matrix(1,0,0,-1,61.9001,57.770906)" d="M0 0C3.758 0 6.483 2.527 6.483 6.088 6.483 6.944 6.322 7.739 6.03 8.456 4.758 8.43 3.504 8.392 2.259 8.347 2.725 7.791 3.011 7.031 3.011 6.088 3.011 4.044 1.714 2.813 0 2.813-1.714 2.813-3.033 4.044-3.033 6.088-3.033 6.914-2.809 7.6-2.439 8.133-3.724 8.061-4.993 7.981-6.247 7.891-6.414 7.328-6.505 6.725-6.505 6.088-6.505 2.527-3.758 0 0 0" fill="#074ea2"/>
<path transform="matrix(1,0,0,-1,37.9519,57.770906)" d="M0 0C1.45 0 2.769 .55 3.67 1.582V.176H6.922V6.88C5.761 6.744 4.623 6.598 3.494 6.449V6.153C3.494 3.978 2.351 2.967 .769 2.967-.719 2.967-1.589 3.82-1.621 5.721-2.779 5.543-3.924 5.36-5.044 5.172-4.985 1.632-2.924 0 0 0" fill="#074ea2"/>
<path transform="matrix(1,0,0,-1,73.5058,61.858903)" d="M0 0V5.517C.879 4.55 2.088 4.088 3.56 4.088 6.878 4.088 9.45 6.461 9.45 10.176 9.45 10.984 9.322 11.723 9.097 12.394 7.772 12.447 6.464 12.485 5.163 12.517 5.67 11.956 5.978 11.163 5.978 10.176 5.978 8.132 4.681 6.901 2.967 6.901 1.252 6.901-.044 8.132-.044 10.176-.044 11.2 .282 12.02 .823 12.583-.609 12.592-2.027 12.591-3.428 12.575V0Z" fill="#074ea2"/>
<path transform="matrix(1,0,0,-1,91.2366,57.770906)" d="M0 0C2.132 0 3.78 .659 4.878 1.912L3.055 3.89C2.241 3.12 1.34 2.747 .088 2.747-1.715 2.747-2.967 3.648-3.297 5.121H5.648C5.669 5.406 5.714 5.78 5.714 6.043 5.714 6.489 5.674 6.913 5.603 7.318 4.515 7.425 3.437 7.519 2.363 7.611 2.413 7.454 2.455 7.292 2.483 7.12H-3.34C-3.288 7.448-3.188 7.743-3.058 8.014-4.177 8.085-5.285 8.145-6.388 8.2-6.617 7.55-6.747 6.843-6.747 6.088-6.747 2.571-4.088 0 0 0" fill="#074ea2"/>
</g>
</g>
</svg>
